<?xml version="1.0" standalone="no"?><!DOCTYPE svg PUBLIC "-//W3C//DTD SVG 1.1//EN" "http://www.w3.org/Graphics/SVG/1.1/DTD/svg11.dtd"><svg t="1602735059671" class="icon" viewBox="0 0 1024 1024" version="1.1" xmlns="http://www.w3.org/2000/svg" p-id="61027" xmlns:xlink="http://www.w3.org/1999/xlink" width="200" height="200"><defs><style type="text/css"></style></defs><path d="M125.952 734.72C-34.816 573.44-42.496 314.88 108.544 144.384 260.096-25.6 517.632-48.64 696.832 92.16c178.688 140.8 217.088 396.8 87.04 583.68l201.216 160.768c23.04 18.432 37.376 46.08 38.912 75.776 1.536 29.696-9.216 58.368-30.208 79.36l-1.024 1.024c-20.992 20.992-49.664 32.256-79.36 30.208-29.696-1.536-57.344-15.872-75.776-38.912L675.84 783.872c-171.008 118.784-402.432 97.792-549.888-49.152z m535.04-73.728c127.488-127.488 127.488-333.824 0-460.8-127.488-127.488-333.824-127.488-460.8 0-127.488 127.488-127.488 333.824 0 460.8 126.976 126.976 333.312 126.976 460.8 0z m0 0" fill="#10AEFF" p-id="61028"></path></svg>