<?xml version="1.0" standalone="no"?><!DOCTYPE svg PUBLIC "-//W3C//DTD SVG 1.1//EN" "http://www.w3.org/Graphics/SVG/1.1/DTD/svg11.dtd"><svg t="1602734689426" class="icon" viewBox="0 0 1024 1024" version="1.1" xmlns="http://www.w3.org/2000/svg" p-id="39493" xmlns:xlink="http://www.w3.org/1999/xlink" width="200" height="200"><defs><style type="text/css"></style></defs><path d="M512 65.536c-246.784 0-446.464 200.192-446.464 446.464s200.192 446.464 446.464 446.464 446.464-200.192 446.464-446.464-199.68-446.464-446.464-446.464z m-202.24 501.76c-30.72 0-55.296-24.576-55.296-55.296s24.576-55.296 55.296-55.296c30.72 0 55.296 24.576 55.296 55.296s-24.576 55.296-55.296 55.296z m202.24 0c-30.72 0-55.296-24.576-55.296-55.296S481.28 456.704 512 456.704s55.296 24.576 55.296 55.296-24.576 55.296-55.296 55.296z m202.24 0c-30.72 0-55.296-24.576-55.296-55.296s24.576-55.296 55.296-55.296c30.72 0 55.296 24.576 55.296 55.296s-25.088 55.296-55.296 55.296z" fill="#199ED8" p-id="39494"></path></svg>