<?xml version="1.0" standalone="no"?><!DOCTYPE svg PUBLIC "-//W3C//DTD SVG 1.1//EN" "http://www.w3.org/Graphics/SVG/1.1/DTD/svg11.dtd"><svg t="1602734463018" class="icon" viewBox="0 0 1024 1024" version="1.1" xmlns="http://www.w3.org/2000/svg" p-id="35046" xmlns:xlink="http://www.w3.org/1999/xlink" width="200" height="200"><defs><style type="text/css"></style></defs><path d="M857.64171852 896.42477036h-46.60337777s0-93.20675555-100.9739852-201.94797037c27.1853037 66.02145185 42.71976297 147.57736297 46.60337778 201.94797037H628.50844445c-15.53445925-31.06891852-34.95253333-66.02145185-69.90506667-100.97398518 11.65084445 31.06891852 23.30168889 66.02145185 31.06891852 100.97398518H162.47466667c-3.88361482-15.53445925-3.88361482-34.95253333-3.88361482-50.48699259 0-128.15928889 69.90506667-240.78411852 174.76266667-302.92195556h357.29256296c104.8576 62.13783703 174.76266667 170.87905185 174.76266667 302.92195556 0 15.53445925-3.88361482 31.06891852-7.76722963 50.48699259z m-244.66773334-403.89594073h-201.94797036c-27.1853037 0-50.48699259-23.30168889-50.4869926-50.4869926v-50.48699259c0-27.1853037 23.30168889-50.48699259 50.4869926-50.4869926h50.48699259V139.11988148c0-27.1853037 23.30168889-50.48699259 50.48699259-50.4869926 27.1853037 0 50.48699259 23.30168889 50.48699259 50.4869926v201.94797036h50.48699259c27.1853037 0 50.48699259 23.30168889 50.4869926 50.4869926v50.48699259c0 27.1853037-23.30168889 50.48699259-50.4869926 50.4869926z" fill="#fd854d" p-id="35047"></path></svg>