<?xml version="1.0" standalone="no"?><!DOCTYPE svg PUBLIC "-//W3C//DTD SVG 1.1//EN" "http://www.w3.org/Graphics/SVG/1.1/DTD/svg11.dtd"><svg t="1602734666278" class="icon" viewBox="0 0 1024 1024" version="1.1" xmlns="http://www.w3.org/2000/svg" p-id="38726" xmlns:xlink="http://www.w3.org/1999/xlink" width="200" height="200"><defs><style type="text/css"></style></defs><path d="M766.6944 821.68832V194.30912A111.91808 111.91808 0 0 0 655.50336 81.92H198.22592A111.91808 111.91808 0 0 0 87.04 194.30912v635.29472a111.91808 111.91808 0 0 0 111.19104 112.38912h569.18016V821.8112zM242.40128 302.12608h49.664V251.904a34.02752 34.02752 0 1 1 68.04992 0V302.08h49.664a34.39616 34.39616 0 0 1 0 68.7872h-49.664v50.176a34.02752 34.02752 0 1 1-68.04992 0v-50.176h-49.664a34.39616 34.39616 0 0 1 0-68.74112zM597.86752 803.84H242.40128a34.39616 34.39616 0 0 1 0-68.7872h355.46624a34.39616 34.39616 0 0 1 0 68.7872z m0-151.48032H347.9552a34.39616 34.39616 0 0 1 0-68.7872h249.91232a34.39616 34.39616 0 0 1 0 68.78208z m0-154.47552H477.82912a34.39616 34.39616 0 0 1 0-68.7872h120.0384a34.39616 34.39616 0 0 1 0 68.78208z m266.49088-116.3776h-41.344V942.08h5.21216v-0.512A120.08448 120.08448 0 0 0 936.96 821.62688V454.89664a73.00096 73.00096 0 0 0-72.6016-73.39008z" fill="#5288F5" p-id="38727"></path></svg>