<?xml version="1.0" standalone="no"?><!DOCTYPE svg PUBLIC "-//W3C//DTD SVG 1.1//EN" "http://www.w3.org/Graphics/SVG/1.1/DTD/svg11.dtd"><svg t="1602734700893" class="icon" viewBox="0 0 1024 1024" version="1.1" xmlns="http://www.w3.org/2000/svg" p-id="1318" xmlns:xlink="http://www.w3.org/1999/xlink" width="200" height="200"><defs><style type="text/css"></style></defs><path d="M810.24 941.1584H219.4432c-56.576 0-102.4-45.824-102.4-102.4V197.2224c0-56.576 45.824-102.4 102.4-102.4h590.7968c56.576 0 102.4 45.824 102.4 102.4v641.4848c0 56.576-45.8752 102.4512-102.4 102.4512z" fill="#F2942F" p-id="1319"></path><path d="M769.8432 908.6464H219.4432c-56.576 0-102.4-45.824-102.4-102.4V197.2224c0-56.576 45.824-102.4 102.4-102.4h550.4c56.576 0 102.4 45.824 102.4 102.4v609.024c0 56.576-45.8752 102.4-102.4 102.4z" fill="#FAB001" p-id="1320"></path><path d="M730.112 869.5808H219.4432c-56.576 0-102.4-45.824-102.4-102.4V197.2224c0-56.576 45.824-102.4 102.4-102.4h510.6688c56.576 0 102.4 45.824 102.4 102.4v569.9072c0 56.576-45.8752 102.4512-102.4 102.4512z" fill="#FECE0A" p-id="1321"></path><path d="M687.2576 836.8128H219.4432c-56.576 0-102.4-45.824-102.4-102.4V197.2224c0-56.576 45.824-102.4 102.4-102.4h467.8144c56.576 0 102.4 45.824 102.4 102.4v537.1904c0 56.576-45.8752 102.4-102.4 102.4z" fill="#FCD21D" p-id="1322"></path><path d="M217.1392 727.0912V197.376c0-71.168 82.176-102.5536 82.176-102.5536h-79.872c-56.576 0-102.4 47.5648-102.4 106.1888V730.624c0 58.624 45.824 106.1888 102.4 106.1888h99.6864c-109.824 0-101.9904-109.7216-101.9904-109.7216z" fill="#FFDB45" p-id="1323"></path><path d="M639.6928 351.8464H275.8656c-29.5936 0-53.6064-24.0128-53.6064-53.6064s24.0128-53.6064 53.6064-53.6064h363.8272c29.5936 0 53.6064 24.0128 53.6064 53.6064-0.0512 29.6448-24.0128 53.6064-53.6064 53.6064zM537.7024 594.5344H275.8656c-29.5936 0-53.6064-24.0128-53.6064-53.6064s24.0128-53.6064 53.6064-53.6064h261.8368c29.5936 0 53.6064 24.0128 53.6064 53.6064s-24.0128 53.6064-53.6064 53.6064z" fill="#F2942F" p-id="1324"></path><path d="M534.8352 575.6928H274.9952c-24.3712 0-44.1856-19.7632-44.1856-44.1856 0-24.3712 19.7632-44.1856 44.1856-44.1856h259.84c24.3712 0 44.1856 19.7632 44.1856 44.1856 0 24.3712-19.8144 44.1856-44.1856 44.1856zM634.8288 333.0048H274.9952c-24.3712 0-44.1856-19.7632-44.1856-44.1856 0-24.3712 19.7632-44.1856 44.1856-44.1856h359.8336c24.3712 0 44.1856 19.7632 44.1856 44.1856 0 24.4224-19.8144 44.1856-44.1856 44.1856z" fill="#39AFDA" p-id="1325"></path><path d="M629.6064 316.0064H266.496a35.6864 35.6864 0 0 1-35.6864-35.6864 35.6864 35.6864 0 0 1 35.6864-35.6864h363.1104a35.6864 35.6864 0 0 1 35.6864 35.6864 35.6864 35.6864 0 0 1-35.6864 35.6864z" fill="#52C5F8" p-id="1326"></path><path d="M638.5152 294.144h-392.192c-8.6016 0-15.5136-6.9632-15.5136-15.5136a24.9344 24.9344 0 0 1 24.9344-24.9344h382.72c11.1616 0 20.224 9.0624 20.224 20.224a20.15744 20.15744 0 0 1-20.1728 20.224z" fill="#64D2F9" p-id="1327"></path><path d="M532.8384 558.6944H266.7008a35.6864 35.6864 0 0 1-35.6864-35.6864 35.6864 35.6864 0 0 1 35.6864-35.6864h266.1376a35.6864 35.6864 0 0 1 35.6864 35.6864 35.6864 35.6864 0 0 1-35.6864 35.6864z" fill="#52C5F8" p-id="1328"></path><path d="M541.0816 538.2144H246.3232c-8.6016 0-15.5136-6.9632-15.5136-15.5136a24.9344 24.9344 0 0 1 24.9344-24.9344h285.3376c11.1616 0 20.224 9.0624 20.224 20.224a20.1728 20.1728 0 0 1-20.224 20.224z" fill="#64D2F9" p-id="1329"></path></svg>