<?xml version="1.0" standalone="no"?><!DOCTYPE svg PUBLIC "-//W3C//DTD SVG 1.1//EN" "http://www.w3.org/Graphics/SVG/1.1/DTD/svg11.dtd"><svg t="1603875226912" class="icon" viewBox="0 0 1024 1024" version="1.1" xmlns="http://www.w3.org/2000/svg" p-id="3357" xmlns:xlink="http://www.w3.org/1999/xlink" width="200" height="200"><defs><style type="text/css"></style></defs><path d="M192 416h64v64h-64zM336 416h64v64h-64zM480 416h64v64h-64zM624 416h64v64h-64zM768 416h64v64h-64zM192 576h64v64h-64zM336 576h64v64h-64zM480 576h64v64h-64zM624 576h64v64h-64zM768 576h64v64h-64zM192 736h64v64h-64zM336 736h64v64h-64zM480 736h64v64h-64zM624 736h64v64h-64zM768 736h64v64h-64z" fill="#ffffff" p-id="3358"></path><path d="M784 64v64h112v128H128V128h112v80h64V64H64v896h896V64zM128 896V320h768v576z" fill="#ffffff" p-id="3359"></path><path d="M720 208h64V64H304v64h416v80z" fill="#ffffff" p-id="3360"></path></svg>