<?xml version="1.0" standalone="no"?><!DOCTYPE svg PUBLIC "-//W3C//DTD SVG 1.1//EN" "http://www.w3.org/Graphics/SVG/1.1/DTD/svg11.dtd"><svg t="1602734834024" class="icon" viewBox="0 0 1024 1024" version="1.1" xmlns="http://www.w3.org/2000/svg" p-id="43662" xmlns:xlink="http://www.w3.org/1999/xlink" width="200" height="200"><defs><style type="text/css"></style></defs><path d="M512 1024C228.266667 1024 0 795.733333 0 512S228.266667 0 512 0s512 228.266667 512 512-228.266667 512-512 512z" fill="#5CA5DD" p-id="43663"></path><path d="M298.666667 808.533333c-12.8 0-21.333333-10.666667-21.333334-21.333333 0-46.933333 55.466667-83.2 155.733334-96v-6.4c-68.266667-51.2-68.266667-147.2-68.266667-204.8 0-96 57.6-153.6 151.466667-153.6h4.266666c93.866667 0 151.466667 57.6 151.466667 153.6v21.333333c0 12.8-10.666667 21.333333-23.466667 21.333334-12.8 0-21.333333-10.666667-21.333333-23.466667v-21.333333c0-72.533333-36.266667-108.8-106.666667-108.8h-4.266666c-70.4 0-106.666667 36.266667-106.666667 108.8 0 70.4 4.266667 142.933333 57.6 174.933333 6.4 4.266667 10.666667 10.666667 10.666667 19.2v38.4c0 10.666667-8.533333 21.333333-19.2 21.333333-87.466667 8.533333-136.533333 36.266667-136.533334 55.466667 0 10.666667-10.666667 21.333333-23.466666 21.333333z m0 0M742.4 808.533333c-12.8 0-21.333333-10.666667-21.333333-21.333333 0-19.2-46.933333-44.8-136.533334-55.466667-10.666667-2.133333-19.2-10.666667-19.2-21.333333v-38.4c0-12.8 10.666667-21.333333 21.333334-21.333333 12.8 0 21.333333 10.666667 21.333333 21.333333v17.066667c100.266667 12.8 155.733333 49.066667 155.733333 96 0 12.8-10.666667 23.466667-21.333333 23.466666z m0 0" fill="#FFFFFF" p-id="43664"></path><path d="M588.8 610.133333c-29.866667 0-53.333333-2.133333-53.333333-2.133333-10.666667-4.266667-17.066667-14.933333-14.933334-25.6 2.133333-10.666667 12.8-19.2 23.466667-17.066667 55.466667 6.4 138.666667 0 153.6-29.866666 4.266667-10.666667 19.2-14.933333 29.866667-10.666667 10.666667 4.266667 14.933333 19.2 10.666666 29.866667-23.466667 46.933333-96 55.466667-149.333333 55.466666z m0 0" fill="#FFFFFF" p-id="43665"></path><path d="M785.066667 588.8c-12.8 0-21.333333-10.666667-21.333334-21.333333V490.666667l-29.866666-10.666667c-8.533333-2.133333-14.933333-10.666667-14.933334-21.333333 0-110.933333-89.6-200.533333-198.4-200.533334-108.8 0-198.4 89.6-198.4 200.533334 0 6.4-4.266667 12.8-8.533333 17.066666l-12.8 8.533334v81.066666c0 12.8-10.666667 21.333333-21.333333 21.333334-12.8 0-21.333333-10.666667-21.333334-21.333334v-91.733333c0-6.4 4.266667-12.8 8.533334-17.066667l12.8-8.533333c4.266667-130.133333 110.933333-234.666667 241.066666-234.666667 128 0 234.666667 100.266667 241.066667 228.266667l29.866667 10.666667c8.533333 2.133333 14.933333 10.666667 14.933333 21.333333v91.733333c0 12.8-8.533333 23.466667-21.333333 23.466667z m0 0" fill="#FFFFFF" p-id="43666"></path></svg>